<?xml version="1.0" encoding="UTF-8"?>
<!DOCTYPE svg PUBLIC "-//W3C//DTD SVG 1.1//EN"
    "http://www.w3.org/Graphics/SVG/1.1/DTD/svg11.dtd"><svg stroke="rgb(0,0,0)" xmlns="http://www.w3.org/2000/svg" font-size="1" width="400.0000" stroke-opacity="1" xmlns:xlink="http://www.w3.org/1999/xlink" viewBox="0.0 0.0 400.0 2652.631578947368" height="2652.6316" version="1.1"><defs></defs><g fill="rgb(0,0,0)" stroke="rgb(0,0,0)" stroke-linecap="butt" stroke-width="0.0" stroke-miterlimit="10.0" fill-opacity="1.0" stroke-opacity="1.0" stroke-linejoin="miter"><path d="M 341.6268,2532.0574 l -0.0000,-114.8325 h -15.3110 l -0.0000,114.8325 Z"/></g><g fill="rgb(255,248,227)" stroke="rgb(0,0,0)" stroke-linecap="butt" stroke-width="2.060148180669485" stroke-miterlimit="10.0" fill-opacity="1.0" stroke-opacity="1.0" stroke-linejoin="miter"><path d="M 381.8182,2532.0574 l -0.0000,-19.1388 h -95.6938 l -0.0000,19.1388 Z"/></g><g fill="rgb(219,65,5)" stroke="rgb(0,0,0)" stroke-linecap="butt" stroke-width="2.060148180669485" stroke-miterlimit="10.0" fill-opacity="1.0" stroke-opacity="1.0" stroke-linejoin="miter"><path d="M 372.2488,2512.9187 l -0.0000,-19.1388 h -76.5550 l -0.0000,19.1388 Z"/></g><g fill="rgb(204,204,159)" stroke="rgb(0,0,0)" stroke-linecap="butt" stroke-width="2.060148180669485" stroke-miterlimit="10.0" fill-opacity="1.0" stroke-opacity="1.0" stroke-linejoin="miter"><path d="M 362.6794,2493.7799 l -0.0000,-19.1388 h -57.4163 l -0.0000,19.1388 Z"/></g><g fill="rgb(159,180,204)" stroke="rgb(0,0,0)" stroke-linecap="butt" stroke-width="2.060148180669485" stroke-miterlimit="10.0" fill-opacity="1.0" stroke-opacity="1.0" stroke-linejoin="miter"><path d="M 353.1100,2474.6411 l -0.0000,-19.1388 h -38.2775 l -0.0000,19.1388 Z"/></g><g fill="rgb(0,0,0)" stroke="rgb(0,0,0)" stroke-linecap="butt" stroke-width="0.0" stroke-miterlimit="10.0" fill-opacity="1.0" stroke-opacity="1.0" stroke-linejoin="miter"><path d="M 207.6555,2532.0574 l -0.0000,-114.8325 h -15.3110 l -0.0000,114.8325 Z"/></g><g fill="rgb(0,0,0)" stroke="rgb(0,0,0)" stroke-linecap="butt" stroke-width="0.0" stroke-miterlimit="10.0" fill-opacity="1.0" stroke-opacity="1.0" stroke-linejoin="miter"><path d="M 73.6842,2532.0574 l -0.0000,-114.8325 h -15.3110 l -0.0000,114.8325 Z"/></g><g fill="rgb(0,0,0)" stroke="rgb(0,0,0)" stroke-linecap="butt" stroke-width="0.0" stroke-miterlimit="10.0" fill-opacity="1.0" stroke-opacity="1.0" stroke-linejoin="miter"><path d="M 341.6268,2378.9474 l -0.0000,-114.8325 h -15.3110 l -0.0000,114.8325 Z"/></g><g fill="rgb(255,248,227)" stroke="rgb(0,0,0)" stroke-linecap="butt" stroke-width="2.060148180669485" stroke-miterlimit="10.0" fill-opacity="1.0" stroke-opacity="1.0" stroke-linejoin="miter"><path d="M 381.8182,2378.9474 l -0.0000,-19.1388 h -95.6938 l -0.0000,19.1388 Z"/></g><g fill="rgb(219,65,5)" stroke="rgb(0,0,0)" stroke-linecap="butt" stroke-width="2.060148180669485" stroke-miterlimit="10.0" fill-opacity="1.0" stroke-opacity="1.0" stroke-linejoin="miter"><path d="M 372.2488,2359.8086 l -0.0000,-19.1388 h -76.5550 l -0.0000,19.1388 Z"/></g><g fill="rgb(204,204,159)" stroke="rgb(0,0,0)" stroke-linecap="butt" stroke-width="2.060148180669485" stroke-miterlimit="10.0" fill-opacity="1.0" stroke-opacity="1.0" stroke-linejoin="miter"><path d="M 362.6794,2340.6699 l -0.0000,-19.1388 h -57.4163 l -0.0000,19.1388 Z"/></g><g fill="rgb(0,0,0)" stroke="rgb(0,0,0)" stroke-linecap="butt" stroke-width="0.0" stroke-miterlimit="10.0" fill-opacity="1.0" stroke-opacity="1.0" stroke-linejoin="miter"><path d="M 207.6555,2378.9474 l -0.0000,-114.8325 h -15.3110 l -0.0000,114.8325 Z"/></g><g fill="rgb(159,180,204)" stroke="rgb(0,0,0)" stroke-linecap="butt" stroke-width="2.060148180669485" stroke-miterlimit="10.0" fill-opacity="1.0" stroke-opacity="1.0" stroke-linejoin="miter"><path d="M 219.1388,2378.9474 l -0.0000,-19.1388 h -38.2775 l -0.0000,19.1388 Z"/></g><g fill="rgb(0,0,0)" stroke="rgb(0,0,0)" stroke-linecap="butt" stroke-width="0.0" stroke-miterlimit="10.0" fill-opacity="1.0" stroke-opacity="1.0" stroke-linejoin="miter"><path d="M 73.6842,2378.9474 l -0.0000,-114.8325 h -15.3110 l -0.0000,114.8325 Z"/></g><g fill="rgb(0,0,0)" stroke="rgb(0,0,0)" stroke-linecap="butt" stroke-width="0.0" stroke-miterlimit="10.0" fill-opacity="1.0" stroke-opacity="1.0" stroke-linejoin="miter"><path d="M 341.6268,2225.8373 l -0.0000,-114.8325 h -15.3110 l -0.0000,114.8325 Z"/></g><g fill="rgb(255,248,227)" stroke="rgb(0,0,0)" stroke-linecap="butt" stroke-width="2.060148180669485" stroke-miterlimit="10.0" fill-opacity="1.0" stroke-opacity="1.0" stroke-linejoin="miter"><path d="M 381.8182,2225.8373 l -0.0000,-19.1388 h -95.6938 l -0.0000,19.1388 Z"/></g><g fill="rgb(219,65,5)" stroke="rgb(0,0,0)" stroke-linecap="butt" stroke-width="2.060148180669485" stroke-miterlimit="10.0" fill-opacity="1.0" stroke-opacity="1.0" stroke-linejoin="miter"><path d="M 372.2488,2206.6986 l -0.0000,-19.1388 h -76.5550 l -0.0000,19.1388 Z"/></g><g fill="rgb(0,0,0)" stroke="rgb(0,0,0)" stroke-linecap="butt" stroke-width="0.0" stroke-miterlimit="10.0" fill-opacity="1.0" stroke-opacity="1.0" stroke-linejoin="miter"><path d="M 207.6555,2225.8373 l -0.0000,-114.8325 h -15.3110 l -0.0000,114.8325 Z"/></g><g fill="rgb(159,180,204)" stroke="rgb(0,0,0)" stroke-linecap="butt" stroke-width="2.060148180669485" stroke-miterlimit="10.0" fill-opacity="1.0" stroke-opacity="1.0" stroke-linejoin="miter"><path d="M 219.1388,2225.8373 l -0.0000,-19.1388 h -38.2775 l -0.0000,19.1388 Z"/></g><g fill="rgb(0,0,0)" stroke="rgb(0,0,0)" stroke-linecap="butt" stroke-width="0.0" stroke-miterlimit="10.0" fill-opacity="1.0" stroke-opacity="1.0" stroke-linejoin="miter"><path d="M 73.6842,2225.8373 l -0.0000,-114.8325 h -15.3110 l -0.0000,114.8325 Z"/></g><g fill="rgb(204,204,159)" stroke="rgb(0,0,0)" stroke-linecap="butt" stroke-width="2.060148180669485" stroke-miterlimit="10.0" fill-opacity="1.0" stroke-opacity="1.0" stroke-linejoin="miter"><path d="M 94.7368,2225.8373 l -0.0000,-19.1388 h -57.4163 l -0.0000,19.1388 Z"/></g><g fill="rgb(0,0,0)" stroke="rgb(0,0,0)" stroke-linecap="butt" stroke-width="0.0" stroke-miterlimit="10.0" fill-opacity="1.0" stroke-opacity="1.0" stroke-linejoin="miter"><path d="M 341.6268,2072.7273 l -0.0000,-114.8325 h -15.3110 l -0.0000,114.8325 Z"/></g><g fill="rgb(255,248,227)" stroke="rgb(0,0,0)" stroke-linecap="butt" stroke-width="2.060148180669485" stroke-miterlimit="10.0" fill-opacity="1.0" stroke-opacity="1.0" stroke-linejoin="miter"><path d="M 381.8182,2072.7273 l -0.0000,-19.1388 h -95.6938 l -0.0000,19.1388 Z"/></g><g fill="rgb(219,65,5)" stroke="rgb(0,0,0)" stroke-linecap="butt" stroke-width="2.060148180669485" stroke-miterlimit="10.0" fill-opacity="1.0" stroke-opacity="1.0" stroke-linejoin="miter"><path d="M 372.2488,2053.5885 l -0.0000,-19.1388 h -76.5550 l -0.0000,19.1388 Z"/></g><g fill="rgb(0,0,0)" stroke="rgb(0,0,0)" stroke-linecap="butt" stroke-width="0.0" stroke-miterlimit="10.0" fill-opacity="1.0" stroke-opacity="1.0" stroke-linejoin="miter"><path d="M 207.6555,2072.7273 l -0.0000,-114.8325 h -15.3110 l -0.0000,114.8325 Z"/></g><g fill="rgb(0,0,0)" stroke="rgb(0,0,0)" stroke-linecap="butt" stroke-width="0.0" stroke-miterlimit="10.0" fill-opacity="1.0" stroke-opacity="1.0" stroke-linejoin="miter"><path d="M 73.6842,2072.7273 l -0.0000,-114.8325 h -15.3110 l -0.0000,114.8325 Z"/></g><g fill="rgb(204,204,159)" stroke="rgb(0,0,0)" stroke-linecap="butt" stroke-width="2.060148180669485" stroke-miterlimit="10.0" fill-opacity="1.0" stroke-opacity="1.0" stroke-linejoin="miter"><path d="M 94.7368,2072.7273 l -0.0000,-19.1388 h -57.4163 l -0.0000,19.1388 Z"/></g><g fill="rgb(159,180,204)" stroke="rgb(0,0,0)" stroke-linecap="butt" stroke-width="2.060148180669485" stroke-miterlimit="10.0" fill-opacity="1.0" stroke-opacity="1.0" stroke-linejoin="miter"><path d="M 85.1675,2053.5885 l -0.0000,-19.1388 h -38.2775 l -0.0000,19.1388 Z"/></g><g fill="rgb(0,0,0)" stroke="rgb(0,0,0)" stroke-linecap="butt" stroke-width="0.0" stroke-miterlimit="10.0" fill-opacity="1.0" stroke-opacity="1.0" stroke-linejoin="miter"><path d="M 341.6268,1919.6172 l -0.0000,-114.8325 h -15.3110 l -0.0000,114.8325 Z"/></g><g fill="rgb(255,248,227)" stroke="rgb(0,0,0)" stroke-linecap="butt" stroke-width="2.060148180669485" stroke-miterlimit="10.0" fill-opacity="1.0" stroke-opacity="1.0" stroke-linejoin="miter"><path d="M 381.8182,1919.6172 l -0.0000,-19.1388 h -95.6938 l -0.0000,19.1388 Z"/></g><g fill="rgb(0,0,0)" stroke="rgb(0,0,0)" stroke-linecap="butt" stroke-width="0.0" stroke-miterlimit="10.0" fill-opacity="1.0" stroke-opacity="1.0" stroke-linejoin="miter"><path d="M 207.6555,1919.6172 l -0.0000,-114.8325 h -15.3110 l -0.0000,114.8325 Z"/></g><g fill="rgb(219,65,5)" stroke="rgb(0,0,0)" stroke-linecap="butt" stroke-width="2.060148180669485" stroke-miterlimit="10.0" fill-opacity="1.0" stroke-opacity="1.0" stroke-linejoin="miter"><path d="M 238.2775,1919.6172 l -0.0000,-19.1388 h -76.5550 l -0.0000,19.1388 Z"/></g><g fill="rgb(0,0,0)" stroke="rgb(0,0,0)" stroke-linecap="butt" stroke-width="0.0" stroke-miterlimit="10.0" fill-opacity="1.0" stroke-opacity="1.0" stroke-linejoin="miter"><path d="M 73.6842,1919.6172 l -0.0000,-114.8325 h -15.3110 l -0.0000,114.8325 Z"/></g><g fill="rgb(204,204,159)" stroke="rgb(0,0,0)" stroke-linecap="butt" stroke-width="2.060148180669485" stroke-miterlimit="10.0" fill-opacity="1.0" stroke-opacity="1.0" stroke-linejoin="miter"><path d="M 94.7368,1919.6172 l -0.0000,-19.1388 h -57.4163 l -0.0000,19.1388 Z"/></g><g fill="rgb(159,180,204)" stroke="rgb(0,0,0)" stroke-linecap="butt" stroke-width="2.060148180669485" stroke-miterlimit="10.0" fill-opacity="1.0" stroke-opacity="1.0" stroke-linejoin="miter"><path d="M 85.1675,1900.4785 l -0.0000,-19.1388 h -38.2775 l -0.0000,19.1388 Z"/></g><g fill="rgb(0,0,0)" stroke="rgb(0,0,0)" stroke-linecap="butt" stroke-width="0.0" stroke-miterlimit="10.0" fill-opacity="1.0" stroke-opacity="1.0" stroke-linejoin="miter"><path d="M 341.6268,1766.5072 l -0.0000,-114.8325 h -15.3110 l -0.0000,114.8325 Z"/></g><g fill="rgb(255,248,227)" stroke="rgb(0,0,0)" stroke-linecap="butt" stroke-width="2.060148180669485" stroke-miterlimit="10.0" fill-opacity="1.0" stroke-opacity="1.0" stroke-linejoin="miter"><path d="M 381.8182,1766.5072 l -0.0000,-19.1388 h -95.6938 l -0.0000,19.1388 Z"/></g><g fill="rgb(159,180,204)" stroke="rgb(0,0,0)" stroke-linecap="butt" stroke-width="2.060148180669485" stroke-miterlimit="10.0" fill-opacity="1.0" stroke-opacity="1.0" stroke-linejoin="miter"><path d="M 353.1100,1747.3684 l -0.0000,-19.1388 h -38.2775 l -0.0000,19.1388 Z"/></g><g fill="rgb(0,0,0)" stroke="rgb(0,0,0)" stroke-linecap="butt" stroke-width="0.0" stroke-miterlimit="10.0" fill-opacity="1.0" stroke-opacity="1.0" stroke-linejoin="miter"><path d="M 207.6555,1766.5072 l -0.0000,-114.8325 h -15.3110 l -0.0000,114.8325 Z"/></g><g fill="rgb(219,65,5)" stroke="rgb(0,0,0)" stroke-linecap="butt" stroke-width="2.060148180669485" stroke-miterlimit="10.0" fill-opacity="1.0" stroke-opacity="1.0" stroke-linejoin="miter"><path d="M 238.2775,1766.5072 l -0.0000,-19.1388 h -76.5550 l -0.0000,19.1388 Z"/></g><g fill="rgb(0,0,0)" stroke="rgb(0,0,0)" stroke-linecap="butt" stroke-width="0.0" stroke-miterlimit="10.0" fill-opacity="1.0" stroke-opacity="1.0" stroke-linejoin="miter"><path d="M 73.6842,1766.5072 l -0.0000,-114.8325 h -15.3110 l -0.0000,114.8325 Z"/></g><g fill="rgb(204,204,159)" stroke="rgb(0,0,0)" stroke-linecap="butt" stroke-width="2.060148180669485" stroke-miterlimit="10.0" fill-opacity="1.0" stroke-opacity="1.0" stroke-linejoin="miter"><path d="M 94.7368,1766.5072 l -0.0000,-19.1388 h -57.4163 l -0.0000,19.1388 Z"/></g><g fill="rgb(0,0,0)" stroke="rgb(0,0,0)" stroke-linecap="butt" stroke-width="0.0" stroke-miterlimit="10.0" fill-opacity="1.0" stroke-opacity="1.0" stroke-linejoin="miter"><path d="M 341.6268,1613.3971 l -0.0000,-114.8325 h -15.3110 l -0.0000,114.8325 Z"/></g><g fill="rgb(255,248,227)" stroke="rgb(0,0,0)" stroke-linecap="butt" stroke-width="2.060148180669485" stroke-miterlimit="10.0" fill-opacity="1.0" stroke-opacity="1.0" stroke-linejoin="miter"><path d="M 381.8182,1613.3971 l -0.0000,-19.1388 h -95.6938 l -0.0000,19.1388 Z"/></g><g fill="rgb(159,180,204)" stroke="rgb(0,0,0)" stroke-linecap="butt" stroke-width="2.060148180669485" stroke-miterlimit="10.0" fill-opacity="1.0" stroke-opacity="1.0" stroke-linejoin="miter"><path d="M 353.1100,1594.2584 l -0.0000,-19.1388 h -38.2775 l -0.0000,19.1388 Z"/></g><g fill="rgb(0,0,0)" stroke="rgb(0,0,0)" stroke-linecap="butt" stroke-width="0.0" stroke-miterlimit="10.0" fill-opacity="1.0" stroke-opacity="1.0" stroke-linejoin="miter"><path d="M 207.6555,1613.3971 l -0.0000,-114.8325 h -15.3110 l -0.0000,114.8325 Z"/></g><g fill="rgb(219,65,5)" stroke="rgb(0,0,0)" stroke-linecap="butt" stroke-width="2.060148180669485" stroke-miterlimit="10.0" fill-opacity="1.0" stroke-opacity="1.0" stroke-linejoin="miter"><path d="M 238.2775,1613.3971 l -0.0000,-19.1388 h -76.5550 l -0.0000,19.1388 Z"/></g><g fill="rgb(204,204,159)" stroke="rgb(0,0,0)" stroke-linecap="butt" stroke-width="2.060148180669485" stroke-miterlimit="10.0" fill-opacity="1.0" stroke-opacity="1.0" stroke-linejoin="miter"><path d="M 228.7081,1594.2584 l -0.0000,-19.1388 h -57.4163 l -0.0000,19.1388 Z"/></g><g fill="rgb(0,0,0)" stroke="rgb(0,0,0)" stroke-linecap="butt" stroke-width="0.0" stroke-miterlimit="10.0" fill-opacity="1.0" stroke-opacity="1.0" stroke-linejoin="miter"><path d="M 73.6842,1613.3971 l -0.0000,-114.8325 h -15.3110 l -0.0000,114.8325 Z"/></g><g fill="rgb(0,0,0)" stroke="rgb(0,0,0)" stroke-linecap="butt" stroke-width="0.0" stroke-miterlimit="10.0" fill-opacity="1.0" stroke-opacity="1.0" stroke-linejoin="miter"><path d="M 341.6268,1460.2871 l -0.0000,-114.8325 h -15.3110 l -0.0000,114.8325 Z"/></g><g fill="rgb(255,248,227)" stroke="rgb(0,0,0)" stroke-linecap="butt" stroke-width="2.060148180669485" stroke-miterlimit="10.0" fill-opacity="1.0" stroke-opacity="1.0" stroke-linejoin="miter"><path d="M 381.8182,1460.2871 l -0.0000,-19.1388 h -95.6938 l -0.0000,19.1388 Z"/></g><g fill="rgb(0,0,0)" stroke="rgb(0,0,0)" stroke-linecap="butt" stroke-width="0.0" stroke-miterlimit="10.0" fill-opacity="1.0" stroke-opacity="1.0" stroke-linejoin="miter"><path d="M 207.6555,1460.2871 l -0.0000,-114.8325 h -15.3110 l -0.0000,114.8325 Z"/></g><g fill="rgb(219,65,5)" stroke="rgb(0,0,0)" stroke-linecap="butt" stroke-width="2.060148180669485" stroke-miterlimit="10.0" fill-opacity="1.0" stroke-opacity="1.0" stroke-linejoin="miter"><path d="M 238.2775,1460.2871 l -0.0000,-19.1388 h -76.5550 l -0.0000,19.1388 Z"/></g><g fill="rgb(204,204,159)" stroke="rgb(0,0,0)" stroke-linecap="butt" stroke-width="2.060148180669485" stroke-miterlimit="10.0" fill-opacity="1.0" stroke-opacity="1.0" stroke-linejoin="miter"><path d="M 228.7081,1441.1483 l -0.0000,-19.1388 h -57.4163 l -0.0000,19.1388 Z"/></g><g fill="rgb(159,180,204)" stroke="rgb(0,0,0)" stroke-linecap="butt" stroke-width="2.060148180669485" stroke-miterlimit="10.0" fill-opacity="1.0" stroke-opacity="1.0" stroke-linejoin="miter"><path d="M 219.1388,1422.0096 l -0.0000,-19.1388 h -38.2775 l -0.0000,19.1388 Z"/></g><g fill="rgb(0,0,0)" stroke="rgb(0,0,0)" stroke-linecap="butt" stroke-width="0.0" stroke-miterlimit="10.0" fill-opacity="1.0" stroke-opacity="1.0" stroke-linejoin="miter"><path d="M 73.6842,1460.2871 l -0.0000,-114.8325 h -15.3110 l -0.0000,114.8325 Z"/></g><g fill="rgb(0,0,0)" stroke="rgb(0,0,0)" stroke-linecap="butt" stroke-width="0.0" stroke-miterlimit="10.0" fill-opacity="1.0" stroke-opacity="1.0" stroke-linejoin="miter"><path d="M 341.6268,1307.1770 l -0.0000,-114.8325 h -15.3110 l -0.0000,114.8325 Z"/></g><g fill="rgb(0,0,0)" stroke="rgb(0,0,0)" stroke-linecap="butt" stroke-width="0.0" stroke-miterlimit="10.0" fill-opacity="1.0" stroke-opacity="1.0" stroke-linejoin="miter"><path d="M 207.6555,1307.1770 l -0.0000,-114.8325 h -15.3110 l -0.0000,114.8325 Z"/></g><g fill="rgb(219,65,5)" stroke="rgb(0,0,0)" stroke-linecap="butt" stroke-width="2.060148180669485" stroke-miterlimit="10.0" fill-opacity="1.0" stroke-opacity="1.0" stroke-linejoin="miter"><path d="M 238.2775,1307.1770 l -0.0000,-19.1388 h -76.5550 l -0.0000,19.1388 Z"/></g><g fill="rgb(204,204,159)" stroke="rgb(0,0,0)" stroke-linecap="butt" stroke-width="2.060148180669485" stroke-miterlimit="10.0" fill-opacity="1.0" stroke-opacity="1.0" stroke-linejoin="miter"><path d="M 228.7081,1288.0383 l -0.0000,-19.1388 h -57.4163 l -0.0000,19.1388 Z"/></g><g fill="rgb(159,180,204)" stroke="rgb(0,0,0)" stroke-linecap="butt" stroke-width="2.060148180669485" stroke-miterlimit="10.0" fill-opacity="1.0" stroke-opacity="1.0" stroke-linejoin="miter"><path d="M 219.1388,1268.8995 l -0.0000,-19.1388 h -38.2775 l -0.0000,19.1388 Z"/></g><g fill="rgb(0,0,0)" stroke="rgb(0,0,0)" stroke-linecap="butt" stroke-width="0.0" stroke-miterlimit="10.0" fill-opacity="1.0" stroke-opacity="1.0" stroke-linejoin="miter"><path d="M 73.6842,1307.1770 l -0.0000,-114.8325 h -15.3110 l -0.0000,114.8325 Z"/></g><g fill="rgb(255,248,227)" stroke="rgb(0,0,0)" stroke-linecap="butt" stroke-width="2.060148180669485" stroke-miterlimit="10.0" fill-opacity="1.0" stroke-opacity="1.0" stroke-linejoin="miter"><path d="M 113.8756,1307.1770 l -0.0000,-19.1388 h -95.6938 l -0.0000,19.1388 Z"/></g><g fill="rgb(0,0,0)" stroke="rgb(0,0,0)" stroke-linecap="butt" stroke-width="0.0" stroke-miterlimit="10.0" fill-opacity="1.0" stroke-opacity="1.0" stroke-linejoin="miter"><path d="M 341.6268,1154.0670 l -0.0000,-114.8325 h -15.3110 l -0.0000,114.8325 Z"/></g><g fill="rgb(0,0,0)" stroke="rgb(0,0,0)" stroke-linecap="butt" stroke-width="0.0" stroke-miterlimit="10.0" fill-opacity="1.0" stroke-opacity="1.0" stroke-linejoin="miter"><path d="M 207.6555,1154.0670 l -0.0000,-114.8325 h -15.3110 l -0.0000,114.8325 Z"/></g><g fill="rgb(219,65,5)" stroke="rgb(0,0,0)" stroke-linecap="butt" stroke-width="2.060148180669485" stroke-miterlimit="10.0" fill-opacity="1.0" stroke-opacity="1.0" stroke-linejoin="miter"><path d="M 238.2775,1154.0670 l -0.0000,-19.1388 h -76.5550 l -0.0000,19.1388 Z"/></g><g fill="rgb(204,204,159)" stroke="rgb(0,0,0)" stroke-linecap="butt" stroke-width="2.060148180669485" stroke-miterlimit="10.0" fill-opacity="1.0" stroke-opacity="1.0" stroke-linejoin="miter"><path d="M 228.7081,1134.9282 l -0.0000,-19.1388 h -57.4163 l -0.0000,19.1388 Z"/></g><g fill="rgb(0,0,0)" stroke="rgb(0,0,0)" stroke-linecap="butt" stroke-width="0.0" stroke-miterlimit="10.0" fill-opacity="1.0" stroke-opacity="1.0" stroke-linejoin="miter"><path d="M 73.6842,1154.0670 l -0.0000,-114.8325 h -15.3110 l -0.0000,114.8325 Z"/></g><g fill="rgb(255,248,227)" stroke="rgb(0,0,0)" stroke-linecap="butt" stroke-width="2.060148180669485" stroke-miterlimit="10.0" fill-opacity="1.0" stroke-opacity="1.0" stroke-linejoin="miter"><path d="M 113.8756,1154.0670 l -0.0000,-19.1388 h -95.6938 l -0.0000,19.1388 Z"/></g><g fill="rgb(159,180,204)" stroke="rgb(0,0,0)" stroke-linecap="butt" stroke-width="2.060148180669485" stroke-miterlimit="10.0" fill-opacity="1.0" stroke-opacity="1.0" stroke-linejoin="miter"><path d="M 85.1675,1134.9282 l -0.0000,-19.1388 h -38.2775 l -0.0000,19.1388 Z"/></g><g fill="rgb(0,0,0)" stroke="rgb(0,0,0)" stroke-linecap="butt" stroke-width="0.0" stroke-miterlimit="10.0" fill-opacity="1.0" stroke-opacity="1.0" stroke-linejoin="miter"><path d="M 341.6268,1000.9569 l -0.0000,-114.8325 h -15.3110 l -0.0000,114.8325 Z"/></g><g fill="rgb(204,204,159)" stroke="rgb(0,0,0)" stroke-linecap="butt" stroke-width="2.060148180669485" stroke-miterlimit="10.0" fill-opacity="1.0" stroke-opacity="1.0" stroke-linejoin="miter"><path d="M 362.6794,1000.9569 l -0.0000,-19.1388 h -57.4163 l -0.0000,19.1388 Z"/></g><g fill="rgb(0,0,0)" stroke="rgb(0,0,0)" stroke-linecap="butt" stroke-width="0.0" stroke-miterlimit="10.0" fill-opacity="1.0" stroke-opacity="1.0" stroke-linejoin="miter"><path d="M 207.6555,1000.9569 l -0.0000,-114.8325 h -15.3110 l -0.0000,114.8325 Z"/></g><g fill="rgb(219,65,5)" stroke="rgb(0,0,0)" stroke-linecap="butt" stroke-width="2.060148180669485" stroke-miterlimit="10.0" fill-opacity="1.0" stroke-opacity="1.0" stroke-linejoin="miter"><path d="M 238.2775,1000.9569 l -0.0000,-19.1388 h -76.5550 l -0.0000,19.1388 Z"/></g><g fill="rgb(0,0,0)" stroke="rgb(0,0,0)" stroke-linecap="butt" stroke-width="0.0" stroke-miterlimit="10.0" fill-opacity="1.0" stroke-opacity="1.0" stroke-linejoin="miter"><path d="M 73.6842,1000.9569 l -0.0000,-114.8325 h -15.3110 l -0.0000,114.8325 Z"/></g><g fill="rgb(255,248,227)" stroke="rgb(0,0,0)" stroke-linecap="butt" stroke-width="2.060148180669485" stroke-miterlimit="10.0" fill-opacity="1.0" stroke-opacity="1.0" stroke-linejoin="miter"><path d="M 113.8756,1000.9569 l -0.0000,-19.1388 h -95.6938 l -0.0000,19.1388 Z"/></g><g fill="rgb(159,180,204)" stroke="rgb(0,0,0)" stroke-linecap="butt" stroke-width="2.060148180669485" stroke-miterlimit="10.0" fill-opacity="1.0" stroke-opacity="1.0" stroke-linejoin="miter"><path d="M 85.1675,981.8182 l -0.0000,-19.1388 h -38.2775 l -0.0000,19.1388 Z"/></g><g fill="rgb(0,0,0)" stroke="rgb(0,0,0)" stroke-linecap="butt" stroke-width="0.0" stroke-miterlimit="10.0" fill-opacity="1.0" stroke-opacity="1.0" stroke-linejoin="miter"><path d="M 341.6268,847.8469 l -0.0000,-114.8325 h -15.3110 l -0.0000,114.8325 Z"/></g><g fill="rgb(204,204,159)" stroke="rgb(0,0,0)" stroke-linecap="butt" stroke-width="2.060148180669485" stroke-miterlimit="10.0" fill-opacity="1.0" stroke-opacity="1.0" stroke-linejoin="miter"><path d="M 362.6794,847.8469 l -0.0000,-19.1388 h -57.4163 l -0.0000,19.1388 Z"/></g><g fill="rgb(159,180,204)" stroke="rgb(0,0,0)" stroke-linecap="butt" stroke-width="2.060148180669485" stroke-miterlimit="10.0" fill-opacity="1.0" stroke-opacity="1.0" stroke-linejoin="miter"><path d="M 353.1100,828.7081 l -0.0000,-19.1388 h -38.2775 l -0.0000,19.1388 Z"/></g><g fill="rgb(0,0,0)" stroke="rgb(0,0,0)" stroke-linecap="butt" stroke-width="0.0" stroke-miterlimit="10.0" fill-opacity="1.0" stroke-opacity="1.0" stroke-linejoin="miter"><path d="M 207.6555,847.8469 l -0.0000,-114.8325 h -15.3110 l -0.0000,114.8325 Z"/></g><g fill="rgb(219,65,5)" stroke="rgb(0,0,0)" stroke-linecap="butt" stroke-width="2.060148180669485" stroke-miterlimit="10.0" fill-opacity="1.0" stroke-opacity="1.0" stroke-linejoin="miter"><path d="M 238.2775,847.8469 l -0.0000,-19.1388 h -76.5550 l -0.0000,19.1388 Z"/></g><g fill="rgb(0,0,0)" stroke="rgb(0,0,0)" stroke-linecap="butt" stroke-width="0.0" stroke-miterlimit="10.0" fill-opacity="1.0" stroke-opacity="1.0" stroke-linejoin="miter"><path d="M 73.6842,847.8469 l -0.0000,-114.8325 h -15.3110 l -0.0000,114.8325 Z"/></g><g fill="rgb(255,248,227)" stroke="rgb(0,0,0)" stroke-linecap="butt" stroke-width="2.060148180669485" stroke-miterlimit="10.0" fill-opacity="1.0" stroke-opacity="1.0" stroke-linejoin="miter"><path d="M 113.8756,847.8469 l -0.0000,-19.1388 h -95.6938 l -0.0000,19.1388 Z"/></g><g fill="rgb(0,0,0)" stroke="rgb(0,0,0)" stroke-linecap="butt" stroke-width="0.0" stroke-miterlimit="10.0" fill-opacity="1.0" stroke-opacity="1.0" stroke-linejoin="miter"><path d="M 341.6268,694.7368 l -0.0000,-114.8325 h -15.3110 l -0.0000,114.8325 Z"/></g><g fill="rgb(204,204,159)" stroke="rgb(0,0,0)" stroke-linecap="butt" stroke-width="2.060148180669485" stroke-miterlimit="10.0" fill-opacity="1.0" stroke-opacity="1.0" stroke-linejoin="miter"><path d="M 362.6794,694.7368 l -0.0000,-19.1388 h -57.4163 l -0.0000,19.1388 Z"/></g><g fill="rgb(159,180,204)" stroke="rgb(0,0,0)" stroke-linecap="butt" stroke-width="2.060148180669485" stroke-miterlimit="10.0" fill-opacity="1.0" stroke-opacity="1.0" stroke-linejoin="miter"><path d="M 353.1100,675.5981 l -0.0000,-19.1388 h -38.2775 l -0.0000,19.1388 Z"/></g><g fill="rgb(0,0,0)" stroke="rgb(0,0,0)" stroke-linecap="butt" stroke-width="0.0" stroke-miterlimit="10.0" fill-opacity="1.0" stroke-opacity="1.0" stroke-linejoin="miter"><path d="M 207.6555,694.7368 l -0.0000,-114.8325 h -15.3110 l -0.0000,114.8325 Z"/></g><g fill="rgb(0,0,0)" stroke="rgb(0,0,0)" stroke-linecap="butt" stroke-width="0.0" stroke-miterlimit="10.0" fill-opacity="1.0" stroke-opacity="1.0" stroke-linejoin="miter"><path d="M 73.6842,694.7368 l -0.0000,-114.8325 h -15.3110 l -0.0000,114.8325 Z"/></g><g fill="rgb(255,248,227)" stroke="rgb(0,0,0)" stroke-linecap="butt" stroke-width="2.060148180669485" stroke-miterlimit="10.0" fill-opacity="1.0" stroke-opacity="1.0" stroke-linejoin="miter"><path d="M 113.8756,694.7368 l -0.0000,-19.1388 h -95.6938 l -0.0000,19.1388 Z"/></g><g fill="rgb(219,65,5)" stroke="rgb(0,0,0)" stroke-linecap="butt" stroke-width="2.060148180669485" stroke-miterlimit="10.0" fill-opacity="1.0" stroke-opacity="1.0" stroke-linejoin="miter"><path d="M 104.3062,675.5981 l -0.0000,-19.1388 h -76.5550 l -0.0000,19.1388 Z"/></g><g fill="rgb(0,0,0)" stroke="rgb(0,0,0)" stroke-linecap="butt" stroke-width="0.0" stroke-miterlimit="10.0" fill-opacity="1.0" stroke-opacity="1.0" stroke-linejoin="miter"><path d="M 341.6268,541.6268 l -0.0000,-114.8325 h -15.3110 l -0.0000,114.8325 Z"/></g><g fill="rgb(204,204,159)" stroke="rgb(0,0,0)" stroke-linecap="butt" stroke-width="2.060148180669485" stroke-miterlimit="10.0" fill-opacity="1.0" stroke-opacity="1.0" stroke-linejoin="miter"><path d="M 362.6794,541.6268 l -0.0000,-19.1388 h -57.4163 l -0.0000,19.1388 Z"/></g><g fill="rgb(0,0,0)" stroke="rgb(0,0,0)" stroke-linecap="butt" stroke-width="0.0" stroke-miterlimit="10.0" fill-opacity="1.0" stroke-opacity="1.0" stroke-linejoin="miter"><path d="M 207.6555,541.6268 l -0.0000,-114.8325 h -15.3110 l -0.0000,114.8325 Z"/></g><g fill="rgb(159,180,204)" stroke="rgb(0,0,0)" stroke-linecap="butt" stroke-width="2.060148180669485" stroke-miterlimit="10.0" fill-opacity="1.0" stroke-opacity="1.0" stroke-linejoin="miter"><path d="M 219.1388,541.6268 l -0.0000,-19.1388 h -38.2775 l -0.0000,19.1388 Z"/></g><g fill="rgb(0,0,0)" stroke="rgb(0,0,0)" stroke-linecap="butt" stroke-width="0.0" stroke-miterlimit="10.0" fill-opacity="1.0" stroke-opacity="1.0" stroke-linejoin="miter"><path d="M 73.6842,541.6268 l -0.0000,-114.8325 h -15.3110 l -0.0000,114.8325 Z"/></g><g fill="rgb(255,248,227)" stroke="rgb(0,0,0)" stroke-linecap="butt" stroke-width="2.060148180669485" stroke-miterlimit="10.0" fill-opacity="1.0" stroke-opacity="1.0" stroke-linejoin="miter"><path d="M 113.8756,541.6268 l -0.0000,-19.1388 h -95.6938 l -0.0000,19.1388 Z"/></g><g fill="rgb(219,65,5)" stroke="rgb(0,0,0)" stroke-linecap="butt" stroke-width="2.060148180669485" stroke-miterlimit="10.0" fill-opacity="1.0" stroke-opacity="1.0" stroke-linejoin="miter"><path d="M 104.3062,522.4880 l -0.0000,-19.1388 h -76.5550 l -0.0000,19.1388 Z"/></g><g fill="rgb(0,0,0)" stroke="rgb(0,0,0)" stroke-linecap="butt" stroke-width="0.0" stroke-miterlimit="10.0" fill-opacity="1.0" stroke-opacity="1.0" stroke-linejoin="miter"><path d="M 341.6268,388.5167 l -0.0000,-114.8325 h -15.3110 l -0.0000,114.8325 Z"/></g><g fill="rgb(0,0,0)" stroke="rgb(0,0,0)" stroke-linecap="butt" stroke-width="0.0" stroke-miterlimit="10.0" fill-opacity="1.0" stroke-opacity="1.0" stroke-linejoin="miter"><path d="M 207.6555,388.5167 l -0.0000,-114.8325 h -15.3110 l -0.0000,114.8325 Z"/></g><g fill="rgb(159,180,204)" stroke="rgb(0,0,0)" stroke-linecap="butt" stroke-width="2.060148180669485" stroke-miterlimit="10.0" fill-opacity="1.0" stroke-opacity="1.0" stroke-linejoin="miter"><path d="M 219.1388,388.5167 l -0.0000,-19.1388 h -38.2775 l -0.0000,19.1388 Z"/></g><g fill="rgb(0,0,0)" stroke="rgb(0,0,0)" stroke-linecap="butt" stroke-width="0.0" stroke-miterlimit="10.0" fill-opacity="1.0" stroke-opacity="1.0" stroke-linejoin="miter"><path d="M 73.6842,388.5167 l -0.0000,-114.8325 h -15.3110 l -0.0000,114.8325 Z"/></g><g fill="rgb(255,248,227)" stroke="rgb(0,0,0)" stroke-linecap="butt" stroke-width="2.060148180669485" stroke-miterlimit="10.0" fill-opacity="1.0" stroke-opacity="1.0" stroke-linejoin="miter"><path d="M 113.8756,388.5167 l -0.0000,-19.1388 h -95.6938 l -0.0000,19.1388 Z"/></g><g fill="rgb(219,65,5)" stroke="rgb(0,0,0)" stroke-linecap="butt" stroke-width="2.060148180669485" stroke-miterlimit="10.0" fill-opacity="1.0" stroke-opacity="1.0" stroke-linejoin="miter"><path d="M 104.3062,369.3780 l -0.0000,-19.1388 h -76.5550 l -0.0000,19.1388 Z"/></g><g fill="rgb(204,204,159)" stroke="rgb(0,0,0)" stroke-linecap="butt" stroke-width="2.060148180669485" stroke-miterlimit="10.0" fill-opacity="1.0" stroke-opacity="1.0" stroke-linejoin="miter"><path d="M 94.7368,350.2392 l -0.0000,-19.1388 h -57.4163 l -0.0000,19.1388 Z"/></g><g fill="rgb(0,0,0)" stroke="rgb(0,0,0)" stroke-linecap="butt" stroke-width="0.0" stroke-miterlimit="10.0" fill-opacity="1.0" stroke-opacity="1.0" stroke-linejoin="miter"><path d="M 341.6268,235.4067 l -0.0000,-114.8325 h -15.3110 l -0.0000,114.8325 Z"/></g><g fill="rgb(0,0,0)" stroke="rgb(0,0,0)" stroke-linecap="butt" stroke-width="0.0" stroke-miterlimit="10.0" fill-opacity="1.0" stroke-opacity="1.0" stroke-linejoin="miter"><path d="M 207.6555,235.4067 l -0.0000,-114.8325 h -15.3110 l -0.0000,114.8325 Z"/></g><g fill="rgb(0,0,0)" stroke="rgb(0,0,0)" stroke-linecap="butt" stroke-width="0.0" stroke-miterlimit="10.0" fill-opacity="1.0" stroke-opacity="1.0" stroke-linejoin="miter"><path d="M 73.6842,235.4067 l -0.0000,-114.8325 h -15.3110 l -0.0000,114.8325 Z"/></g><g fill="rgb(255,248,227)" stroke="rgb(0,0,0)" stroke-linecap="butt" stroke-width="2.060148180669485" stroke-miterlimit="10.0" fill-opacity="1.0" stroke-opacity="1.0" stroke-linejoin="miter"><path d="M 113.8756,235.4067 l -0.0000,-19.1388 h -95.6938 l -0.0000,19.1388 Z"/></g><g fill="rgb(219,65,5)" stroke="rgb(0,0,0)" stroke-linecap="butt" stroke-width="2.060148180669485" stroke-miterlimit="10.0" fill-opacity="1.0" stroke-opacity="1.0" stroke-linejoin="miter"><path d="M 104.3062,216.2679 l -0.0000,-19.1388 h -76.5550 l -0.0000,19.1388 Z"/></g><g fill="rgb(204,204,159)" stroke="rgb(0,0,0)" stroke-linecap="butt" stroke-width="2.060148180669485" stroke-miterlimit="10.0" fill-opacity="1.0" stroke-opacity="1.0" stroke-linejoin="miter"><path d="M 94.7368,197.1292 l -0.0000,-19.1388 h -57.4163 l -0.0000,19.1388 Z"/></g><g fill="rgb(159,180,204)" stroke="rgb(0,0,0)" stroke-linecap="butt" stroke-width="2.060148180669485" stroke-miterlimit="10.0" fill-opacity="1.0" stroke-opacity="1.0" stroke-linejoin="miter"><path d="M 85.1675,177.9904 l -0.0000,-19.1388 h -38.2775 l -0.0000,19.1388 Z"/></g></svg>